<?xml version="1.0" encoding="UTF-8"?><svg xmlns="http://www.w3.org/2000/svg" xmlns:xlink="http://www.w3.org/1999/xlink" viewBox="0 0 1265.17 843.45"><defs><style>.f{opacity:.18;}.g{fill:#d7d59d;}.h{clip-path:url(#d);}.i{fill:none;}.j{opacity:.46;}</style><clipPath id="d"><rect class="i" width="1265.17" height="843.45"/></clipPath></defs><g id="a"/><g id="b"><g id="c"><g class="f"><g class="h"><g id="e" class="j"><path class="g" d="M1199.16,586.83c-3.25,2.87-6.09,6.49-8.41,11.01-14.98,29.18-15.23,85.04,20.15,100.13,15.04,6.41,33.32,9.08,49.34,12.01,24.01,4.39,43.71,.71,60.71-18.18,13.48-14.99,27.41-34.94,28.2-55.82,.43-11.33-3.84-23.27-12.97-30.01-7.52-5.55-17.17-6.98-26.29-9.01-31.11-6.92-81.73-35.72-110.72-10.13Z"/><path class="g" d="M406.49-29.64c-5.01,2.53-9.54,6.04-14.55,9.94-10.96,8.54-20.45,18.78-20.45,33.51,.92,20.25,18.3,31,32.75,42.45,30.55,24.2,76.64,37.45,114.79,24.19,19.06-6.62,32.14-25.81,29.37-46.6-2.55-19.15-32.33-32.94-47.1-41.9-14.22-8.63-29.72-16.19-45.66-20.99-14.96-4.5-34.59-7.94-49.14-.6Z"/><path class="g" d="M408.05-54.43c-4.24,2.19-8.12,5.03-11.87,8.02-3.73,3.03-7.45,6.04-10.63,9.58-3.23,3.47-5.99,7.35-7.87,11.57-.93,2.11-1.62,4.3-2.11,6.52-.39,2.23-.67,4.51-.57,6.72,.26,4.43,1.57,8.82,3.56,12.78,2.03,3.96,4.86,7.53,8.06,10.82,6.46,6.52,14.29,12.1,21.76,18.21,7.27,5.97,15.2,11.21,23.61,15.62,8.41,4.41,17.31,7.97,26.54,10.36,18.41,4.82,38.23,5.09,56.25-.58l3.35-1.12,1.67-.56,1.58-.69c1.06-.44,2.1-.91,3.09-1.49,1.01-.53,2.02-1.07,2.96-1.73,3.83-2.47,7.27-5.52,10.17-8.99,5.78-6.97,9.16-15.77,9.44-24.66l-.04-3.33-.33-3.32-.7-2.99-1.18-2.89c-1.89-3.78-4.86-7.19-8.18-10.25-6.71-6.15-14.76-11.16-22.96-15.95-4.1-2.44-8.28-4.78-12.47-7.35-4.05-2.5-8.14-4.88-12.27-7.21-8.3-4.58-16.77-8.86-25.56-12.44-8.8-3.53-17.92-6.5-27.34-7.87-9.35-1.38-19.31-.96-27.94,3.22Zm-.3-.59c4.33-2.21,9.09-3.45,13.89-4.08,4.81-.68,9.69-.65,14.53-.33,9.69,.74,19.28,2.73,28.59,5.57,9.33,2.82,18.42,6.49,27.09,10.92,4.36,2.17,8.62,4.56,12.79,7.04,4.04,2.38,8.29,4.65,12.5,7.05,8.35,4.89,16.84,9.99,24.16,17.04,3.63,3.52,7.04,7.52,9.35,12.42,.49,1.27,1.02,2.53,1.46,3.82,.29,1.35,.61,2.71,.84,4.05l.29,3.86c.01,1.29-.03,2.58-.05,3.87-.5,10.35-4.86,20.29-11.68,27.82-3.39,3.79-7.4,7-11.82,9.44-1.08,.66-2.23,1.18-3.37,1.7-1.13,.56-2.3,1.01-3.49,1.42l-1.77,.64-1.78,.48-3.55,.95c-9.51,2.44-19.3,3.2-28.99,3-9.7-.25-19.34-1.59-28.76-3.82-9.42-2.22-18.69-5.23-27.61-9.13-8.9-3.96-17.46-8.78-25.38-14.59-3.87-2.89-7.71-5.66-11.54-8.69-3.82-3-7.63-6.17-11.05-9.86-.86-.91-1.67-1.89-2.5-2.84-.8-.99-1.55-2.02-2.32-3.02-.69-1.08-1.38-2.16-2.03-3.26-.58-1.15-1.22-2.27-1.73-3.45-2.13-4.72-3.11-9.89-2.97-15.06,.12-2.61,.64-5.09,1.3-7.55,.75-2.43,1.72-4.76,2.94-6.95,2.47-4.36,5.7-8.14,9.25-11.47,3.56-3.33,7.4-6.28,11.28-9.11,3.86-2.87,7.77-5.74,12.12-7.89Z"/><path class="g" d="M506.46,67.38c-21.66-3.26-46.56,24.92-54.99,42.45-3.83,7.96-4.75,17.87-.11,25.38,10.85,17.56,38.67,18.6,55.49,10.89,18.06-8.29,29.54-26.62,26.92-46.63-1.54-11.77-12.87-29.92-27.31-32.09Z"/><g><path class="g" d="M378.61,64.79c-7.66,6.19-10.23,12.19-2.72,19.08,3.89,3.56,7.47,8.46,13.39,5.73,3.86-1.78,10.88-8.12,12.12-12.11,1.84-5.95-4.67-8.41-8.64-10.76-3.14-1.85-11.03-7.05-14.15-1.94Z"/><path class="g" d="M360.57,93.72c2.48-4.02,2.69-7.14-1.81-9.06-2.32-.99-4.72-2.64-6.97-.46-1.46,1.42-3.63,5.41-3.55,7.41,.11,2.98,3.45,3.06,5.62,3.49,1.71,.34,6.11,1.43,6.71-1.37Z"/><path class="g" d="M392.93,117.3c2.69-4.35,2.91-7.73-1.96-9.81-2.52-1.08-5.12-2.86-7.54-.5-1.58,1.54-3.93,5.85-3.85,8.02,.12,3.23,3.74,3.31,6.09,3.78,1.85,.37,6.61,1.55,7.26-1.49Z"/></g><g><path class="g" d="M736.18,795.83c-8.44-5.07-14.96-5.42-18.85,4-2.01,4.87-5.38,9.92-.78,14.54,3,3.01,11.37,7.43,15.54,7.22,6.22-.32,6.3-7.28,7.13-11.81,.66-3.58,2.83-12.78-3.04-13.96Z"/><path class="g" d="M702.8,788.82c4.62,.95,7.63,.07,7.89-4.81,.14-2.52,.86-5.34-1.96-6.7-1.84-.89-6.32-1.55-8.18-.79-2.76,1.13-1.69,4.29-1.35,6.48,.27,1.72,.75,6.23,3.59,5.83Z"/><path class="g" d="M691.77,827.31c5.01,1.03,8.26,.08,8.54-5.21,.15-2.73,.93-5.79-2.12-7.26-1.99-.96-6.85-1.68-8.85-.86-2.99,1.23-1.83,4.65-1.46,7.01,.29,1.87,.81,6.75,3.89,6.31Z"/></g><g><path class="g" d="M14.11-129.55c-32.57,12.52-59.78,36.88-78.66,65.01-4.64,7.05-8.29,14.53-10.57,22.14-2.06,7.64-2.56,15.53-1.65,23.48,2.09,15.95,9.02,31.54,16.54,47.05,7.66,15.69,14.34,31.74,24.59,45.03,10.06,13.27,24.94,22.99,41.01,28.72,16.15,5.7,33.65,7.78,50.7,6.17,17.2-1.23,33.05-8.17,47.13-17.73,14.15-9.56,26.55-21.6,39.66-33.2,12.99-11.97,27.2-22.5,38.71-34.41,11.53-11.75,19.07-26.35,21.5-42.17,2.44-15.67-.07-32.04-7.95-45.59-3.95-6.83-8.87-12.84-15.05-17.75-6.23-4.99-13.53-9.18-21.02-13.66l-22.31-13.54c-7.43-4.3-14.88-8.54-22.61-12.23-15.38-7.51-31.84-12.66-49.03-14.33-17.16-1.69-34.74,.92-51,7Zm-.5-1.31c16.35-6.42,33.95-9.57,51.68-9.59,17.74-.04,35.6,3.68,52.39,9.69,16.82,5.82,32.95,14.25,47.98,22.5,7.74,4.03,15.75,8.37,23.31,14.14,7.64,5.78,14.2,13.34,19.12,21.54,9.76,16.72,12.95,36.89,9.44,55.58-3.29,18.71-13.19,36.21-26.51,48.99-13.1,12.96-27.67,22.54-40.9,33.62-13.43,11.05-27.35,22.19-42.81,31.24-7.72,4.52-15.88,8.42-24.46,11.18-8.57,2.75-17.55,4.27-26.39,4.79-17.75,1.05-35.63-1.09-52.55-6.61-16.82-5.54-33.16-14.31-45.53-28-12.23-13.64-20.38-29.64-29.01-44.73-8.32-15.42-16.51-32.11-18.42-51.08-.95-9.41,.09-19.26,3.33-28.27,3.2-9.01,8.4-16.84,14.04-23.86,11.41-13.93,24.63-25.92,39.09-36.06,14.45-10.08,29.81-18.81,46.21-25.07Z"/><path class="g" d="M48.27-89.17h0m17.05,2.02c30.31,0,60.58,14.61,80.71,37.01,5.14,5.72,9.89,12.52,10.09,20.21,.21,8.33-4.98,15.82-10.79,21.79-11.52,11.83-26.14,20.16-40.99,27.39-11.91,5.8-24.24,11.05-37.26,13.51-13.02,2.46-26.88,1.99-39.02-3.32C14.85,23.66,4.67,12.7-4.35,1.46c-14.47-18.04-22.92-40.69-.58-56.71,8.9-6.38,19.51-9.85,29.04-15.24,14.14-8,24.39-16.66,41.2-16.66m-.05-28.5c-4.92,.46-9.81,1.27-14.6,2.41-22.55,5.34-40.36,19.52-60.55,30.08-13.36,6.99-26.94,14.7-33.47,29.04-9.09,19.97-1.69,45.86,9.46,63.52C-14.34,40.34,18.74,62.6,54.26,62.6c9.83,0,19.83-1.7,29.79-5.39,42.01-15.56,112.02-44.13,97.92-102.09-5.97-24.56-46.21-50.67-67.66-61.92-15.02-7.88-32.25-10.42-49.05-8.85Z"/><path class="g" d="M54.96-60.35c-9.19-.07-22,6.6-28.52,12.87-6.38,6.13-7.44,14.57-4.24,22.65C29.57-6.21,47.69,.08,66.29,1.95,82.99,3.62,120.46,0,116.62-25.35c-1.92-12.69-16.63-14.53-26.19-18.8-7.19-3.21-13.62-7.76-20.79-11.17-5.23-2.48-9.16-3.59-14.68-5.04Z"/></g><g><path class="g" d="M823.36,331.99h0m-5.31,.73c-9.16,2.39-19.46,.37-27.32-4.81-2.01-1.32-3.98-3-4.64-5.31-.72-2.5,.25-5.17,1.54-7.44,2.55-4.49,6.31-8.16,10.23-11.51,3.14-2.69,6.45-5.25,10.2-7.03,3.74-1.77,7.97-2.73,12.06-2.08,4.45,.7,8.39,3.21,12,5.9,5.8,4.31,10.14,10.49,4.65,17.09-2.18,2.63-5.12,4.52-7.57,6.9-3.64,3.54-6.06,6.96-11.14,8.29m2.27,8.61c1.45-.53,2.86-1.16,4.22-1.88,6.39-3.4,10.66-9.09,15.92-13.87,3.48-3.17,6.98-6.57,7.82-11.42,1.17-6.75-3.11-13.99-7.87-18.45-8.35-7.81-20.11-11.93-30.84-9.12-2.97,.78-5.86,2.08-8.58,3.98-11.47,8.02-30.37,22.18-21.53,38.59,3.74,6.95,17.97,11.66,25.34,13.37,5.16,1.2,10.57,.6,15.52-1.2Z"/><path class="g" d="M819.06,323.8c2.78-.71,6.13-3.73,7.6-6.14,1.44-2.36,1.1-4.99-.51-7.18-3.7-5.04-9.67-5.51-15.44-4.61-5.18,.81-16.22,4.86-13.06,12.23,1.58,3.68,6.17,3.08,9.4,3.61,2.43,.4,4.73,1.27,7.17,1.73,1.78,.34,3.05,.36,4.83,.36Z"/><path class="g" d="M836.87,341.49c8.86-6.36,15.15-15.87,18.64-25.86,.84-2.5,1.36-5.05,1.45-7.52,.02-2.47-.45-4.9-1.36-7.23-1.89-4.66-5.22-8.82-8.72-12.91-3.55-4.14-6.84-8.46-10.99-11.67-4.09-3.22-9.35-4.98-14.66-5.44-5.33-.45-10.78,.31-15.81,2.14-5.1,1.73-9.34,5.08-12.84,9.08-3.52,4.01-6.32,8.63-9.36,13.17-2.98,4.64-6.44,8.95-8.98,13.46-2.56,4.46-3.68,9.47-3.17,14.44,.5,4.93,2.55,9.68,6,13.15,1.73,1.75,3.7,3.18,5.95,4.17,2.28,1.02,4.81,1.71,7.43,2.47l7.81,2.33c2.59,.71,5.17,1.41,7.8,1.91,5.24,1.06,10.62,1.31,15.95,.46,5.32-.84,10.43-3.02,14.86-6.14Zm.26,.36c-4.43,3.23-9.51,5.57-14.86,6.98-5.36,1.41-11.05,1.7-16.6,1.21-5.54-.43-11.08-1.71-16.28-3.01-2.66-.61-5.42-1.28-8.16-2.43-2.77-1.14-5.34-2.91-7.48-5-4.27-4.28-6.83-10.13-7.24-16.05-.48-5.91,1.13-11.99,4.14-16.9,2.93-4.95,6.58-9,9.71-13.39,3.19-4.4,6.51-8.87,10.47-12.82,1.98-1.97,4.13-3.8,6.51-5.31,2.37-1.51,4.97-2.68,7.6-3.53,5.28-1.72,10.85-2.49,16.4-2.15,5.52,.35,11.15,1.71,15.97,4.87,4.77,3.16,8.5,7.35,12.3,11.23,3.73,4,7.53,8.4,9.6,13.98,1.03,2.77,1.49,5.83,1.23,8.81-.25,2.98-1.21,5.75-2.36,8.32-2.35,5.11-5.4,9.78-8.97,13.99-3.57,4.19-7.52,8.04-11.99,11.23Z"/></g><g><path class="g" d="M132.3,835.92h0m-21.29,2.94c-36.72,9.59-78.01,1.47-109.49-19.29-8.04-5.3-15.95-12.03-18.61-21.29-2.89-10.02,1.02-20.74,6.17-29.81,10.21-17.98,25.29-32.69,40.99-46.15,12.6-10.8,25.87-21.06,40.86-28.16,14.99-7.11,31.93-10.92,48.32-8.33,17.82,2.82,33.62,12.87,48.1,23.64,23.24,17.27,40.64,42.04,18.65,68.51-8.76,10.54-20.52,18.11-30.35,27.66-14.6,14.17-24.27,27.9-44.64,33.22m9.08,34.51c5.82-2.12,11.48-4.65,16.92-7.54,25.63-13.61,42.71-36.42,63.83-55.6,13.97-12.69,27.98-26.33,31.35-45.77,4.69-27.07-12.47-56.09-31.56-73.95-33.47-31.31-80.59-47.8-123.63-36.56-11.9,3.11-23.48,8.34-34.39,15.96-45.97,32.15-121.73,88.92-86.31,154.67,15.01,27.86,72.02,46.75,101.56,53.59,20.7,4.79,42.37,2.41,62.23-4.8Z"/><path class="g" d="M115.07,803.13c11.16-2.83,24.55-14.96,30.48-24.63,5.79-9.44,4.41-20.01-2.03-28.78-14.83-20.22-38.77-22.1-61.89-18.47-20.76,3.25-65.02,19.5-52.33,49,6.35,14.76,24.75,12.33,37.67,14.48,9.72,1.61,18.96,5.09,28.72,6.95,7.12,1.35,12.23,1.45,19.37,1.46Z"/><path class="g" d="M186.46,874.02c35.5-25.48,60.74-63.6,74.72-103.65,3.39-10.01,5.44-20.23,5.79-30.16,.08-9.91-1.82-19.63-5.44-28.97-7.58-18.66-20.91-35.35-34.93-51.76-14.25-16.58-27.42-33.92-44.04-46.77-16.39-12.89-37.48-19.95-58.78-21.81-21.37-1.79-43.23,1.23-63.38,8.58-20.45,6.93-37.45,20.36-51.48,36.39-14.12,16.06-25.33,34.58-37.53,52.78-11.95,18.61-25.83,35.87-36.01,53.94-10.24,17.88-14.76,37.96-12.69,57.89,2,19.75,10.22,38.79,24.06,52.71,6.95,7.03,14.81,12.75,23.85,16.73,9.12,4.07,19.29,6.84,29.79,9.9l31.31,9.34c10.36,2.86,20.73,5.64,31.26,7.66,21,4.23,42.58,5.26,63.93,1.84,21.32-3.39,41.79-12.11,59.56-24.63Zm1.03,1.43c-17.78,12.95-38.1,22.34-59.58,27.98-21.48,5.66-44.29,6.81-66.53,4.85-22.22-1.73-44.42-6.84-65.24-12.07-10.65-2.43-21.73-5.15-32.71-9.76-11.09-4.58-21.42-11.67-29.98-20.04-17.11-17.16-27.36-40.59-29.03-64.34-1.94-23.71,4.52-48.04,16.61-67.75,11.76-19.84,26.38-36.06,38.9-53.67,12.77-17.64,26.11-35.54,41.97-51.4,7.92-7.92,16.57-15.23,26.09-21.28,9.51-6.04,19.91-10.72,30.46-14.16,21.17-6.89,43.51-9.96,65.75-8.62,22.13,1.39,44.69,6.84,64.02,19.51,19.13,12.66,34.06,29.45,49.3,45,14.96,16.05,30.17,33.67,38.49,56.05,4.13,11.09,5.98,23.36,4.91,35.3-1.02,11.93-4.84,23.05-9.45,33.35-9.42,20.48-21.63,39.19-35.93,56.05-14.32,16.79-30.16,32.23-48.04,45Z"/></g><g><path class="g" d="M1385.99,455.03h0m-31.01,4.29c-53.47,13.97-113.61,2.15-159.46-28.09-11.71-7.72-23.23-17.52-27.11-31-4.21-14.59,1.49-30.21,8.99-43.41,14.88-26.19,36.83-47.61,59.7-67.22,18.35-15.73,37.68-30.67,59.52-41.02,21.84-10.35,46.51-15.91,70.38-12.13,25.96,4.11,48.96,18.75,70.06,34.43,33.85,25.16,59.19,61.23,27.16,99.78-12.75,15.35-29.88,26.38-44.2,40.28-21.26,20.64-35.35,40.63-65.02,48.38m13.22,50.27c8.48-3.08,16.72-6.77,24.64-10.97,37.32-19.83,62.21-53.05,92.96-80.98,20.34-18.48,40.75-38.35,45.66-66.66,6.84-39.43-18.16-81.7-45.97-107.71-48.75-45.61-117.38-69.62-180.05-53.24-17.34,4.53-34.2,12.14-50.08,23.25-66.95,46.82-177.3,129.51-125.71,225.27,21.86,40.57,104.9,68.09,147.92,78.05,30.14,6.98,61.71,3.52,90.63-7Z"/><path class="g" d="M1360.9,407.27c16.25-4.12,35.76-21.79,44.39-35.87,8.43-13.75,6.42-29.14-2.96-41.92-21.61-29.45-56.46-32.18-90.14-26.9-30.24,4.74-94.69,28.4-76.22,71.37,9.25,21.5,36.04,17.96,54.87,21.09,14.16,2.35,27.61,7.42,41.84,10.12,10.37,1.97,17.81,2.11,28.22,2.12Z"/><path class="g" d="M1464.88,510.52c51.7-37.11,88.46-92.63,108.82-150.96,4.93-14.58,7.92-29.46,8.44-43.93,.11-14.43-2.65-28.59-7.92-42.19-11.03-27.18-30.46-51.49-50.88-75.39-20.75-24.15-39.94-49.4-64.14-68.12-23.87-18.78-54.59-29.06-85.6-31.77-31.13-2.61-62.96,1.79-92.3,12.5-29.78,10.09-54.55,29.65-74.98,53-20.56,23.4-36.89,50.36-54.66,76.87-17.41,27.11-37.62,52.24-52.44,78.56-14.92,26.04-21.5,55.29-18.49,84.31,2.91,28.77,14.89,56.5,35.04,76.76,10.12,10.23,21.57,18.57,34.74,24.37,13.29,5.93,28.1,9.97,43.38,14.42l45.6,13.61c15.09,4.16,30.2,8.21,45.52,11.15,30.59,6.16,62.02,7.66,93.12,2.68,31.06-4.93,60.87-17.64,86.75-35.87Zm1.49,2.08c-25.89,18.86-55.5,32.53-86.77,40.75-31.29,8.24-64.5,9.92-96.9,7.06-32.36-2.52-64.7-9.96-95.02-17.58-15.51-3.54-31.65-7.5-47.65-14.21-16.15-6.68-31.2-17-43.66-29.19-24.92-24.99-39.85-59.11-42.28-93.71-2.83-34.53,6.58-69.96,24.19-98.67,17.13-28.9,38.43-52.52,56.66-78.17,18.59-25.69,38.02-51.76,61.13-74.86,11.53-11.53,24.13-22.18,38-30.99,13.86-8.8,29-15.62,44.36-20.62,30.83-10.03,63.37-14.51,95.77-12.56,32.23,2.02,65.1,9.96,93.24,28.41,27.86,18.43,49.61,42.9,71.8,65.54,21.79,23.37,43.93,49.04,56.05,81.63,6.01,16.16,8.71,34.03,7.15,51.41-1.48,17.37-7.06,33.58-13.77,48.58-13.72,29.83-31.51,57.08-52.34,81.64-20.85,24.45-43.92,46.94-69.97,65.54Z"/></g><path class="g" d="M522.21,761.61c-5.99,4.02-11.64,8.54-16.85,13.51-5.61,5.35-10.87,11.47-13.11,18.89-5.4,17.84,10.7,30.27,27.11,29.79,14.36-.42,27.78-4.23,42.09-4.83,18.08-.75,34.65,1.39,52.52,2.91,35.64,3.02,77.43-32.66,43.2-64.9-18.36-17.29-48.64-18.36-72.35-16.85-22.26,1.41-44.07,9.05-62.61,21.48Z"/><path class="g" d="M1040.59-103.82c-9.74-2.35-19.75-3.76-29.73-3.33-9.94,.55-19.85,2.45-28.9,6.43-9.1,3.74-17.5,9.28-24.71,15.64-7.08,6.47-12.72,14.41-17.59,22.88-4.85,8.42-9.04,17.67-13.69,26.55-4.43,8.97-8.8,17.9-12.87,26.9-7.85,18.03-14.88,36.49-16.77,55.22-.87,9.34-.57,18.52,2.22,27.51,2.65,9.02,7.11,17.76,12.08,26.34,5.03,8.58,10.46,17.08,16,25.41,5.76,8.18,11.7,16.24,18.29,23.74,13.17,14.9,28.48,28.31,46.43,36.61,8.91,4.15,18.33,7.28,28.04,8.38,4.79,.96,9.71,.75,14.54,1.09,4.87-.38,9.7-.3,14.55-1.09,19.43-2.62,37.88-9.82,55.67-18.24,8.87-4.31,17.58-9.07,26.15-14.11,8.55-5.04,16.98-10.17,24.94-15.86,15.88-11.29,30.44-24.47,40.13-40.24,4.78-7.88,8.39-16.27,10.31-25.06,1.92-8.89,1.66-17.67,.13-26.54-3.18-17.83-13.38-34.56-25.1-49.91-2.98-3.84-6.06-7.63-9.34-11.28-3.1-3.8-6.54-7.35-9.86-11.01-6.86-7.13-13.85-14.23-21.12-21.12-14.68-13.7-29.5-27.26-45.99-38.68-16.36-11.55-34.42-20.96-53.81-26.22Zm.41-1.59c19.71,5.03,38.2,13.9,55.81,24.04,17.63,10.19,34.38,21.95,50.57,34.23,16.22,12.33,32.03,25.69,45.58,41.68,6.76,8,13.16,16.46,18.27,25.96,5.11,9.43,9.68,19.5,11.75,30.56,2.13,10.92,2.19,22.68-.21,33.56-2.39,10.96-6.92,21.36-12.95,30.51-12.07,18.4-28.64,32.26-45.85,43.83-17.36,11.58-35.52,20.85-54.46,29.1-18.94,8.15-39.3,13.89-60.12,15.32-20.88,1.79-42.17-2.9-60.49-12.31-18.49-9.37-34.09-23.14-47.93-38.05-13.84-15.03-26.22-31.17-38.04-47.81-5.82-8.44-11.38-17.42-15.23-27.54-3.96-10.08-5.47-21.41-4.98-32.16,.59-10.8,2.66-21.3,5.83-31.31,3.1-10.03,6.96-19.71,11.46-28.99,4.4-9.33,9.32-18.33,14.53-27.08,5.14-8.77,10.4-17.37,16.48-25.93,6.08-8.43,13.09-16.56,21.69-22.85,8.67-6.06,17.9-10.84,27.78-14.02,19.72-6.46,40.92-5.94,60.49-.74Z"/><path class="g" d="M66.93,286.33c4.09-2.5,7.96-5.41,11.19-8.94,3.18-3.55,5.89-7.55,7.61-11.96,1.81-4.35,2.78-9.07,3.07-13.66,.21-4.59-.57-9.19-1.79-13.7-1.21-4.49-2.92-9.05-4.36-13.62-1.54-4.54-3.08-9.04-4.75-13.46-3.45-8.76-7.32-17.39-13.02-24.37-2.87-3.46-6.08-6.46-10.06-8.56-3.95-2.16-8.42-3.61-13.01-4.83-4.61-1.2-9.33-2.24-14.02-3.19-4.72-.82-9.46-1.54-14.23-1.85-9.5-.58-19.23,.06-28.11,3.32-4.42,1.61-8.67,3.74-12.33,6.66-1.95,1.3-3.54,3.04-5.29,4.55-1.52,1.78-3.18,3.39-4.56,5.29-5.69,7.47-9.5,16.15-12.67,25.02-1.55,4.46-2.88,9.02-4.08,13.63-1.19,4.6-2.31,9.19-3.07,13.81-1.55,9.2-2.02,18.59,.04,27.21,1.05,4.29,2.67,8.35,4.99,11.97,2.36,3.66,5.42,6.54,8.94,9.03,7.11,4.96,16.23,7.17,25.4,8.4,2.31,.29,4.63,.53,6.98,.66,2.34,.23,4.7,.27,7.07,.39,4.74,.09,9.51,.13,14.3,0,9.61-.33,19.22-.76,28.67-2.47,9.45-1.63,18.75-4.56,27.1-9.34Zm.4,.68c-8.37,4.97-17.64,8.23-27.03,10.76-9.42,2.52-19.07,4.21-28.71,5.53-9.67,1.32-19.54,2.15-29.55,1.32-5-.42-10.03-1.12-14.97-2.6-4.92-1.46-9.88-3.32-14.33-6.37-4.42-2.97-8.42-6.94-11.29-11.43-2.9-4.52-4.89-9.58-5.94-14.71-2.14-10.32-1.22-20.62,.68-30.36,1.96-9.8,4.97-19.09,8.58-28.29,3.65-9.17,8.6-18.01,15.17-25.54,6.46-7.68,15.26-13.3,24.65-16.31,9.43-3.09,19.38-3.71,29.11-3.34,9.77,.4,19.43,1.67,29.07,3.31,4.83,.89,9.75,2.04,14.48,4.17,4.75,2.07,9.1,5.4,12.57,9.2,3.46,3.86,6.31,8.11,8.63,12.57,2.35,4.45,4.32,9.03,5.94,13.7,1.67,4.65,3.05,9.36,4.25,14.09,1.23,4.71,2.36,9.4,3.2,14.36,.8,4.91,1.17,10.04,.39,15.08-.88,4.99-2.39,9.73-4.66,14.15-4.49,8.86-11.85,15.86-20.23,20.73Z"/><g><path class="g" d="M967.81,924.64c-3.22-9.1-6.88-19.41-3.1-30.23,.89-2.55,1.86-4.88,2.79-7.12,2.35-5.65,4.37-10.53,4.54-17.19,.26-9.84-.35-17.92-1.98-26.19-.51-2.62-1.24-5.18-2-7.9-1.26-4.45-2.55-9.05-2.87-13.96-.7-10.99,.97-20.54,4.97-28.39,4.21-8.28,6.79-15.9,5.66-26.14-.85-7.76-3.98-15.62-7-23.22-1.25-3.13-2.54-6.37-3.64-9.55-2.48-7.12-3.32-13.19-2.74-19.68,.47-5.23,2.08-10.1,3.65-14.81,1.35-4.06,2.62-7.89,3.17-11.84l6.18,.86c-.63,4.52-2.05,8.8-3.42,12.95-1.52,4.58-2.95,8.9-3.36,13.4-.51,5.64,.22,10.75,2.41,17.08,1.06,3.05,2.27,6.08,3.54,9.29,3.18,7.99,6.46,16.24,7.41,24.84,1.3,11.77-1.58,20.37-6.3,29.65-3.48,6.84-4.93,15.31-4.3,25.16,.27,4.24,1.42,8.33,2.64,12.66,.77,2.71,1.56,5.52,2.12,8.39,1.71,8.74,2.36,17.24,2.09,27.55-.2,7.82-2.55,13.46-5.02,19.43-.9,2.17-1.83,4.41-2.66,6.79-3.06,8.75-.07,17.17,3.09,26.09l-5.88,2.08Z"/><path class="g" d="M983.72,925.45l-.12-.57c-2.21-10.46-4.97-23.49-.71-34.64,.65-1.7,1.38-3.24,2.09-4.73,1.22-2.56,2.37-4.98,2.83-7.74,1.56-9.46,.5-17.71-1.73-27.96-3.43-15.77-6.66-30.67-2.13-48.1,1.76-6.79,4.51-13.03,7.18-19.07l.4-.91c3.34-7.59,3.08-17.13,2.48-24.6-.82-10.19-4.39-18.95-8.16-28.22l-1.46-3.6c-3.89-9.7-5.03-18.03-3.47-25.48l6.11,1.28c-1.3,6.2-.26,13.36,3.15,21.87l1.45,3.57c3.96,9.73,7.7,18.92,8.6,30.07,.66,8.2,.92,18.74-2.99,27.62l-.4,.91c-2.68,6.08-5.21,11.82-6.85,18.13-4.15,15.99-1.07,30.18,2.19,45.2,2.38,10.97,3.51,19.87,1.78,30.31-.6,3.63-2,6.57-3.35,9.41-.66,1.38-1.33,2.77-1.9,4.27-3.6,9.44-1.05,21.47,.99,31.13l.12,.57-6.11,1.29Z"/><path class="g" d="M1000.58,926.78c-.28-1.09-.57-2.17-.85-3.23-1.68-6.29-3.27-12.23-2.9-19.38,.25-4.7,2.21-9.39,3.94-13.52l.78-1.87c.69-1.69,1.45-3.31,2.19-4.9,1.82-3.86,3.53-7.51,3.88-11.79,.73-9.12-.39-18.58-3.45-28.93-4.95-16.78-3.98-32.8,2.97-48.99,6.96-16.21,4.9-31.02-.67-49.65-.57-1.91-1.17-3.84-1.77-5.79-5.59-18.06-11.92-38.54-2.27-57.33l5.55,2.85c-8.48,16.53-2.8,34.89,2.69,52.64,.61,1.97,1.21,3.91,1.79,5.84,5.98,19.97,8.13,35.96,.43,53.9-6.35,14.8-7.24,29.44-2.72,44.76,3.27,11.1,4.48,21.3,3.69,31.2-.44,5.41-2.48,9.75-4.45,13.94-.7,1.49-1.42,3.01-2.07,4.6l-.8,1.92c-1.54,3.67-3.28,7.82-3.47,11.43-.33,6.16,1.07,11.39,2.69,17.43,.29,1.08,.59,2.18,.87,3.29l-6.05,1.55Z"/><path class="g" d="M1018.6,929.16c-.45-1.8-1.03-3.58-1.6-5.3-1.56-4.74-3.17-9.64-2.25-15.61,.81-5.26,3.05-9.82,5.22-14.22,1.17-2.38,2.27-4.62,3.15-6.95,3.05-8.07,4.31-16.29,4.2-27.49-.06-5.91-1.26-11.29-2.54-16.98-.71-3.16-1.44-6.43-1.98-9.84-1.98-12.6,.54-25.35,2.97-37.68,1.76-8.91,3.57-18.12,3.55-26.9v-3.79c.03-5.84,.05-11.35-.73-16.93-.59-4.2-1.67-8.19-2.81-12.42-.79-2.9-1.6-5.91-2.24-8.99-1.53-7.37-2.91-14.63-3.02-22.44-.01-.92-.12-1.95-.24-3.01-.3-2.92-.65-6.22,.47-8.94l5.77,2.38c-.52,1.26-.25,3.84-.03,5.92,.13,1.26,.26,2.49,.27,3.57,.11,7.27,1.37,13.93,2.9,21.26,.6,2.9,1.39,5.81,2.15,8.63,1.14,4.22,2.32,8.59,2.97,13.18,.85,6.02,.83,12.02,.8,17.83v3.75c.02,9.39-1.86,18.91-3.67,28.12-2.43,12.34-4.73,24-2.93,35.51,.5,3.21,1.21,6.37,1.9,9.44,1.29,5.76,2.63,11.72,2.69,18.29,.12,11.86-1.3,21.04-4.6,29.76-.99,2.61-2.21,5.09-3.39,7.5-2.05,4.17-3.99,8.1-4.65,12.42-.69,4.49,.56,8.3,2.01,12.71,.6,1.83,1.22,3.73,1.73,5.75l-6.06,1.5Z"/></g></g></g></g></g></g></svg>